<?xml version="1.0" encoding="utf-8"?>
<svg xmlns="http://www.w3.org/2000/svg" viewBox="0 0 100 100" fill="#000000"><path d="M 18 15 C 15.802666 15 14 16.802666 14 19 C 14 20.850335 15.284199 22.4056 17 22.855469 L 17 83 L 12 83 A 1.0001 1.0001 0 1 0 12 85 L 18 85 L 50 85 L 90 85 A 1.0001 1.0001 0 1 0 90 83 L 85 83 L 85 35.855469 C 86.715801 35.4056 88 33.850335 88 32 C 88 29.802666 86.197334 28 84 28 L 51 28 L 51 22.855469 C 52.715801 22.4056 54 20.850335 54 19 C 54 16.802666 52.197334 15 50 15 L 18 15 z M 18 17 L 50 17 C 51.116666 17 52 17.883334 52 19 C 52 20.116666 51.116666 21 50 21 L 18 21 C 16.883334 21 16 20.116666 16 19 C 16 17.883334 16.883334 17 18 17 z M 19 23 L 49 23 L 49 26 L 43.5 26 A 0.50005 0.50005 0 1 0 43.5 27 L 49 27 L 49 28.832031 A 1.0001 1.0001 0 0 0 49 29.158203 L 49 34.832031 A 1.0001 1.0001 0 0 0 49 35.158203 L 49 76 L 44.5 76 A 0.50005 0.50005 0 1 0 44.5 77 L 49 77 L 49 83 L 39 83 L 39 77 L 41.5 77 A 0.50005 0.50005 0 1 0 41.5 76 L 39 76 C 39 73.250484 36.749516 71 34 71 C 31.250484 71 29 73.250484 29 76 L 24.5 76 A 0.50005 0.50005 0 1 0 24.5 77 L 29 77 L 29 83 L 19 83 L 19 77 L 21.5 77 A 0.50005 0.50005 0 1 0 21.5 76 L 19 76 L 19 27 L 34.5 27 A 0.50005 0.50005 0 1 0 34.5 26 L 19 26 L 19 23 z M 37.5 26 A 0.50005 0.50005 0 1 0 37.5 27 L 40.5 27 A 0.50005 0.50005 0 1 0 40.5 26 L 37.5 26 z M 51 30 L 84 30 C 85.116666 30 86 30.883334 86 32 C 86 33.116666 85.116666 34 84 34 L 51 34 L 51 30 z M 23.5 32 A 0.50005 0.50005 0 0 0 23 32.5 L 23 38.5 A 0.50005 0.50005 0 0 0 23.5 39 L 30.5 39 A 0.50005 0.50005 0 0 0 31 38.5 L 31 32.5 A 0.50005 0.50005 0 0 0 30.5 32 L 23.5 32 z M 37.5 32 A 0.50005 0.50005 0 0 0 37 32.5 L 37 38.5 A 0.50005 0.50005 0 0 0 37.5 39 L 44.5 39 A 0.50005 0.50005 0 0 0 45 38.5 L 45 32.5 A 0.50005 0.50005 0 0 0 44.5 32 L 37.5 32 z M 24 33 L 30 33 L 30 38 L 24 38 L 24 33 z M 38 33 L 44 33 L 44 38 L 38 38 L 38 33 z M 51 36 L 83 36 L 83 39 L 75.5 39 A 0.50005 0.50005 0 1 0 75.5 40 L 83 40 L 83 83 L 51 83 L 51 40 L 67.5 40 A 0.50005 0.50005 0 1 0 67.5 39 L 51 39 L 51 36 z M 70.5 39 A 0.50005 0.50005 0 1 0 70.5 40 L 72.5 40 A 0.50005 0.50005 0 1 0 72.5 39 L 70.5 39 z M 23.5 42 A 0.50005 0.50005 0 0 0 23 42.5 L 23 48.5 A 0.50005 0.50005 0 0 0 23.5 49 L 30.5 49 A 0.50005 0.50005 0 0 0 31 48.5 L 31 42.5 A 0.50005 0.50005 0 0 0 30.5 42 L 23.5 42 z M 37.5 42 A 0.50005 0.50005 0 0 0 37 42.5 L 37 48.5 A 0.50005 0.50005 0 0 0 37.5 49 L 44.5 49 A 0.50005 0.50005 0 0 0 45 48.5 L 45 42.5 A 0.50005 0.50005 0 0 0 44.5 42 L 37.5 42 z M 24 43 L 30 43 L 30 48 L 24 48 L 24 43 z M 38 43 L 44 43 L 44 48 L 38 48 L 38 43 z M 55.5 45 A 0.50005 0.50005 0 0 0 55 45.5 L 55 50.5 A 0.50005 0.50005 0 0 0 55.5 51 L 60.5 51 A 0.50005 0.50005 0 0 0 61 50.5 L 61 45.5 A 0.50005 0.50005 0 0 0 60.5 45 L 55.5 45 z M 64.5 45 A 0.50005 0.50005 0 0 0 64 45.5 L 64 50.5 A 0.50005 0.50005 0 0 0 64.5 51 L 69.5 51 A 0.50005 0.50005 0 0 0 70 50.5 L 70 45.5 A 0.50005 0.50005 0 0 0 69.5 45 L 64.5 45 z M 73.5 45 A 0.50005 0.50005 0 0 0 73 45.5 L 73 50.5 A 0.50005 0.50005 0 0 0 73.5 51 L 78.5 51 A 0.50005 0.50005 0 0 0 79 50.5 L 79 45.5 A 0.50005 0.50005 0 0 0 78.5 45 L 73.5 45 z M 56 46 L 60 46 L 60 50 L 56 50 L 56 46 z M 65 46 L 69 46 L 69 50 L 65 50 L 65 46 z M 74 46 L 78 46 L 78 50 L 74 50 L 74 46 z M 23.5 52 A 0.50005 0.50005 0 0 0 23 52.5 L 23 58.5 A 0.50005 0.50005 0 0 0 23.5 59 L 30.5 59 A 0.50005 0.50005 0 0 0 31 58.5 L 31 52.5 A 0.50005 0.50005 0 0 0 30.5 52 L 23.5 52 z M 37.5 52 A 0.50005 0.50005 0 0 0 37 52.5 L 37 58.5 A 0.50005 0.50005 0 0 0 37.5 59 L 44.5 59 A 0.50005 0.50005 0 0 0 45 58.5 L 45 52.5 A 0.50005 0.50005 0 0 0 44.5 52 L 37.5 52 z M 24 53 L 30 53 L 30 58 L 24 58 L 24 53 z M 38 53 L 44 53 L 44 58 L 38 58 L 38 53 z M 55.5 54 A 0.50005 0.50005 0 0 0 55 54.5 L 55 59.5 A 0.50005 0.50005 0 0 0 55.5 60 L 60.5 60 A 0.50005 0.50005 0 0 0 61 59.5 L 61 54.5 A 0.50005 0.50005 0 0 0 60.5 54 L 55.5 54 z M 64.5 54 A 0.50005 0.50005 0 0 0 64 54.5 L 64 59.5 A 0.50005 0.50005 0 0 0 64.5 60 L 69.5 60 A 0.50005 0.50005 0 0 0 70 59.5 L 70 54.5 A 0.50005 0.50005 0 0 0 69.5 54 L 64.5 54 z M 73.5 54 A 0.50005 0.50005 0 0 0 73 54.5 L 73 59.5 A 0.50005 0.50005 0 0 0 73.5 60 L 78.5 60 A 0.50005 0.50005 0 0 0 79 59.5 L 79 54.5 A 0.50005 0.50005 0 0 0 78.5 54 L 73.5 54 z M 56 55 L 60 55 L 60 59 L 56 59 L 56 55 z M 65 55 L 69 55 L 69 59 L 65 59 L 65 55 z M 74 55 L 78 55 L 78 59 L 74 59 L 74 55 z M 23.5 62 A 0.50005 0.50005 0 0 0 23 62.5 L 23 68.5 A 0.50005 0.50005 0 0 0 23.5 69 L 30.5 69 A 0.50005 0.50005 0 0 0 31 68.5 L 31 62.5 A 0.50005 0.50005 0 0 0 30.5 62 L 23.5 62 z M 37.5 62 A 0.50005 0.50005 0 0 0 37 62.5 L 37 68.5 A 0.50005 0.50005 0 0 0 37.5 69 L 44.5 69 A 0.50005 0.50005 0 0 0 45 68.5 L 45 62.5 A 0.50005 0.50005 0 0 0 44.5 62 L 37.5 62 z M 24 63 L 30 63 L 30 68 L 24 68 L 24 63 z M 38 63 L 44 63 L 44 68 L 38 68 L 38 63 z M 55.5 63 A 0.50005 0.50005 0 0 0 55 63.5 L 55 68.5 A 0.50005 0.50005 0 0 0 55.5 69 L 60.5 69 A 0.50005 0.50005 0 0 0 61 68.5 L 61 63.5 A 0.50005 0.50005 0 0 0 60.5 63 L 55.5 63 z M 64.5 63 A 0.50005 0.50005 0 0 0 64 63.5 L 64 68.5 A 0.50005 0.50005 0 0 0 64.5 69 L 69.5 69 A 0.50005 0.50005 0 0 0 70 68.5 L 70 63.5 A 0.50005 0.50005 0 0 0 69.5 63 L 64.5 63 z M 73.5 63 A 0.50005 0.50005 0 0 0 73 63.5 L 73 68.5 A 0.50005 0.50005 0 0 0 73.5 69 L 78.5 69 A 0.50005 0.50005 0 0 0 79 68.5 L 79 63.5 A 0.50005 0.50005 0 0 0 78.5 63 L 73.5 63 z M 56 64 L 60 64 L 60 68 L 56 68 L 56 64 z M 65 64 L 69 64 L 69 68 L 65 68 L 65 64 z M 74 64 L 78 64 L 78 68 L 74 68 L 74 64 z M 55.5 72 A 0.50005 0.50005 0 0 0 55 72.5 L 55 77.5 A 0.50005 0.50005 0 0 0 55.5 78 L 60.5 78 A 0.50005 0.50005 0 0 0 61 77.5 L 61 72.5 A 0.50005 0.50005 0 0 0 60.5 72 L 55.5 72 z M 64.5 72 A 0.50005 0.50005 0 0 0 64 72.5 L 64 77.5 A 0.50005 0.50005 0 0 0 64.5 78 L 69.5 78 A 0.50005 0.50005 0 0 0 70 77.5 L 70 72.5 A 0.50005 0.50005 0 0 0 69.5 72 L 64.5 72 z M 73.5 72 A 0.50005 0.50005 0 0 0 73 72.5 L 73 77.5 A 0.50005 0.50005 0 0 0 73.5 78 L 78.5 78 A 0.50005 0.50005 0 0 0 79 77.5 L 79 72.5 A 0.50005 0.50005 0 0 0 78.5 72 L 73.5 72 z M 34 73 C 35.668484 73 37 74.331516 37 76 L 37 83 L 31 83 L 31 76 C 31 74.331516 32.331516 73 34 73 z M 56 73 L 60 73 L 60 77 L 56 77 L 56 73 z M 65 73 L 69 73 L 69 77 L 65 77 L 65 73 z M 74 73 L 78 73 L 78 77 L 74 77 L 74 73 z" fill="#000000"/></svg>
