<?xml version="1.0" encoding="utf-8"?>
<svg xmlns="http://www.w3.org/2000/svg" viewBox="0 0 100 100" fill="#000000"><path d="M 50.59375 19 C 40.445384 19 34 26.80652 34 34.658203 C 34 37.121276 34.577224 39.023373 35.306641 40.441406 L 35.294922 40.431641 C 35.294922 40.431641 34.721193 41.198841 34.628906 41.318359 A 1.0001 1.0001 0 0 0 34.625 41.324219 C 34.311042 41.738212 34.031454 42.358154 34.003906 43.130859 C 33.994006 43.41013 34.021232 43.439758 34.044922 43.605469 C 34.068612 43.77118 34.102498 43.973441 34.142578 44.208984 C 34.222728 44.68007 34.330364 45.275027 34.447266 45.882812 C 34.680592 47.095911 34.900244 48.230452 35.089844 48.820312 L 35.091797 48.822266 C 35.092037 48.823013 35.091556 48.825472 35.091797 48.826172 C 35.336277 49.599655 35.845014 50.244984 36.503906 50.720703 L 36.503906 50.863281 C 36.503906 52.699509 37.238687 54.51683 37.916016 55.548828 A 1.0001 1.0001 0 0 0 37.917969 55.548828 C 39.412002 57.824645 40.961984 59.744329 43.003906 61.208984 L 43.003906 62.25 C 43.003906 64.083333 41.152344 64.751953 41.152344 64.751953 A 1.0001 1.0001 0 0 0 41.068359 64.787109 C 41.068359 64.787109 36.477904 67.009001 34.955078 67.720703 C 33.665068 68.322457 32.205873 69.228387 31.035156 70.578125 C 30.451872 71.250497 29.945675 72.041697 29.583984 72.943359 C 29.376503 72.841158 29.171276 72.735654 28.953125 72.650391 A 1.0001 1.0001 0 0 0 28.900391 72.630859 L 23.34375 70.810547 C 23.33034 70.805747 22.32053 70.322895 22.121094 69.251953 C 23.842633 68.285757 25.604025 66.967462 26.84375 65.078125 L 26.841797 65.078125 C 27.348141 64.309127 28 63.018186 28 61.490234 L 28 61.472656 C 28.519608 61.062713 28.924292 60.538096 29.119141 59.921875 L 29.119141 59.917969 C 29.283919 59.404174 29.453369 58.518072 29.640625 57.544922 C 29.734405 57.057582 29.822221 56.580199 29.886719 56.201172 C 29.918969 56.011658 29.945474 55.848499 29.964844 55.712891 C 29.984214 55.577282 30.008117 55.569606 29.998047 55.296875 C 29.974497 54.637439 29.735653 54.100103 29.460938 53.738281 A 1.0001 1.0001 0 0 0 29.457031 53.732422 C 29.395178 53.65226 29.046117 53.187311 28.974609 53.091797 C 29.543105 51.936237 30 50.414875 30 48.5 C 30 46.085915 29.49483 43.962715 28.605469 42.380859 C 27.780794 40.914058 26.564133 39.972833 25.152344 39.746094 C 24.383361 38.107252 22.098462 36 17.478516 36 C 9.2498254 36 4 42.222222 4 48.5 C 4 50.503947 4.4547287 52.037369 5.0234375 53.179688 C 4.9914772 53.215449 4.9916347 53.215006 4.9570312 53.253906 C 4.8003576 53.430037 4.6740081 53.562606 4.5429688 53.732422 A 1.0001 1.0001 0 0 0 4.5390625 53.740234 C 4.2667445 54.099427 4.0259834 54.636406 4.0019531 55.296875 C 3.9918891 55.569606 4.0157882 55.577282 4.0351562 55.712891 C 4.0545243 55.848499 4.0810322 56.013611 4.1132812 56.203125 C 4.1777793 56.582152 4.2655999 57.057582 4.359375 57.544922 C 4.5464521 58.517143 4.7142809 59.403951 4.8789062 59.917969 L 4.8808594 59.919922 C 4.8811179 59.920728 4.8806008 59.923028 4.8808594 59.923828 C 5.075789 60.539325 5.4804567 61.062899 6 61.472656 L 6 61.490234 C 6 63.018186 6.6527832 64.309267 7.1582031 65.078125 L 7.15625 65.078125 C 8.3972161 66.967867 10.158689 68.287599 11.880859 69.253906 C 11.6832 70.352972 10.672849 70.804412 10.666016 70.806641 L 10.662109 70.808594 L 5.0976562 72.630859 A 1.0001 1.0001 0 0 0 5.046875 72.650391 C 2.6758726 73.575063 0.97619225 75.581682 0.27539062 77.982422 A 1.0001 1.0001 0 0 0 0.048828125 78.427734 C -0.2377697 79.73522 0.8082294 81 2.140625 81 L 30 81 L 70 81 L 97.859375 81 C 99.191771 81 100.23737 79.735284 99.951172 78.427734 A 1.0001 1.0001 0 0 0 99.722656 77.978516 C 99.02131 75.578976 97.323726 73.571938 94.953125 72.648438 A 1.0001 1.0001 0 0 0 94.900391 72.630859 L 89.34375 70.810547 C 89.33034 70.805747 88.32053 70.322895 88.121094 69.251953 C 89.842633 68.285757 91.604025 66.967462 92.84375 65.078125 L 92.841797 65.078125 C 93.348141 64.309127 94 63.018186 94 61.490234 L 94 61.472656 C 94.519608 61.062713 94.924292 60.538096 95.119141 59.921875 L 95.119141 59.917969 C 95.283919 59.404174 95.453369 58.518072 95.640625 57.544922 C 95.734395 57.057582 95.822221 56.580199 95.886719 56.201172 C 95.918969 56.011658 95.945474 55.848499 95.964844 55.712891 C 95.984214 55.577282 96.008117 55.569606 95.998047 55.296875 C 95.974497 54.637439 95.735653 54.100103 95.460938 53.738281 A 1.0001 1.0001 0 0 0 95.457031 53.732422 C 95.395178 53.65226 95.046117 53.187311 94.974609 53.091797 C 95.103181 52.830453 95.222831 52.545377 95.335938 52.246094 C 95.359325 52.184299 95.381773 52.122017 95.404297 52.058594 C 95.513953 51.749397 95.616937 51.428362 95.701172 51.080078 C 95.701774 51.077595 95.702524 51.072798 95.703125 51.070312 C 95.78336 50.737095 95.844834 50.379168 95.894531 50.009766 C 95.907229 49.915622 95.917314 49.821134 95.927734 49.724609 C 95.969915 49.3335 96 48.93035 96 48.5 C 96 47.896479 95.967506 47.311294 95.90625 46.748047 C 95.722482 45.058305 95.272489 43.567251 94.605469 42.380859 C 93.780794 40.914058 92.564133 39.972833 91.152344 39.746094 C 90.383361 38.107252 88.098462 36 83.478516 36 C 75.249826 36 70 42.222222 70 48.5 C 70 48.94892 70.030519 49.366197 70.072266 49.769531 C 70.081632 49.859669 70.090335 49.94924 70.101562 50.037109 C 70.151588 50.430496 70.214424 50.806801 70.296875 51.15625 C 70.298827 51.164476 70.302719 51.171485 70.304688 51.179688 C 70.391648 51.544199 70.49371 51.881242 70.607422 52.199219 C 70.617524 52.227331 70.628397 52.255446 70.638672 52.283203 C 70.756469 52.602977 70.883924 52.89666 71.019531 53.169922 C 71.021004 53.172888 71.021963 53.176726 71.023438 53.179688 C 70.991477 53.215449 70.991635 53.215006 70.957031 53.253906 C 70.800358 53.430037 70.674008 53.562606 70.542969 53.732422 A 1.0001 1.0001 0 0 0 70.539062 53.740234 C 70.266745 54.099427 70.025983 54.636406 70.001953 55.296875 C 69.991893 55.569606 70.015796 55.577282 70.035156 55.712891 C 70.054526 55.848499 70.081031 56.013611 70.113281 56.203125 C 70.177781 56.582152 70.2656 57.057582 70.359375 57.544922 C 70.546452 58.517143 70.714281 59.403951 70.878906 59.917969 L 70.880859 59.919922 C 70.881118 59.920728 70.880601 59.923028 70.880859 59.923828 C 71.075782 60.539354 71.480457 61.062899 72 61.472656 L 72 61.490234 C 72 63.018186 72.652783 64.309267 73.158203 65.078125 L 73.15625 65.078125 C 74.397216 66.967867 76.158689 68.287599 77.880859 69.253906 C 77.6832 70.352972 76.672849 70.804412 76.666016 70.806641 L 76.662109 70.808594 L 71.097656 72.630859 A 1.0001 1.0001 0 0 0 71.046875 72.650391 C 70.829907 72.73493 70.626403 72.84176 70.419922 72.943359 C 70.05868 72.041712 69.551885 71.250581 68.96875 70.578125 C 67.798226 69.228308 66.338125 68.320959 65.048828 67.71875 C 63.526002 67.007048 58.935547 64.787109 58.935547 64.787109 A 1.0001 1.0001 0 0 0 58.851562 64.75 C 58.851562 64.75 57 64.083333 57 62.25 L 57 61.207031 C 59.04086 59.742527 60.592411 57.823872 62.085938 55.548828 C 62.763474 54.516513 63.5 52.698718 63.5 50.863281 L 63.5 50.720703 C 64.157855 50.245136 64.667626 49.599663 64.912109 48.826172 L 64.912109 48.822266 C 65.100244 48.235189 65.321068 47.09678 65.554688 45.882812 C 65.671644 45.275059 65.781105 44.682014 65.861328 44.210938 C 65.901438 43.975397 65.933321 43.771187 65.957031 43.605469 C 65.980751 43.439751 66.007937 43.410376 65.998047 43.130859 C 65.970497 42.358154 65.692864 41.738212 65.378906 41.324219 A 1.0001 1.0001 0 0 0 65.375 41.320312 C 65.27554 41.190691 64.707031 40.431641 64.707031 40.431641 L 64.585938 40.523438 C 65.364007 39.06919 66 37.13065 66 34.658203 C 66 31.62889 65.375546 28.968162 64.287109 26.996094 C 63.264445 25.143194 61.768711 23.95979 60.029297 23.703125 C 59.121695 21.685019 56.329827 19 50.59375 19 z M 50.59375 20 C 56.181346 20 58.579383 22.673356 59.21875 24.265625 A 0.50005 0.50005 0 0 0 59.646484 24.578125 C 61.114982 24.681392 62.430546 25.700084 63.412109 27.478516 C 64.393673 29.256947 65 31.767516 65 34.658203 C 65 39.559892 62.782874 41.637081 61.882812 42.375 C 61.856212 42.012729 61.892513 41.977038 61.783203 41.40625 A 0.50005 0.50005 0 1 0 60.802734 41.59375 C 61.02086 42.732416 61 43.470703 61 43.470703 A 0.50005 0.50005 0 0 0 61.775391 43.898438 C 61.775391 43.898438 62.591179 43.311371 63.501953 42.158203 C 63.630438 42.328983 63.72376 42.453114 63.785156 42.533203 C 63.874363 42.650835 63.971298 42.84173 63.992188 43.158203 C 63.989978 43.199305 63.987127 43.262098 63.978516 43.322266 C 63.959036 43.458368 63.926962 43.650132 63.888672 43.875 C 63.812082 44.324736 63.704636 44.909363 63.589844 45.505859 C 63.36026 46.698853 63.055521 48.066263 63.007812 48.214844 A 1.0001 1.0001 0 0 0 63.005859 48.220703 C 62.813747 48.83103 62.441448 49.214577 62.183594 49.300781 A 1.0001 1.0001 0 0 0 61.5 50.25 L 61.5 50.863281 C 61.5 52.065845 60.794526 53.871487 60.414062 54.451172 C 58.849373 56.834618 57.400127 58.67239 55.457031 59.929688 A 1.0001 1.0001 0 0 0 55.4375 59.943359 C 55.045322 60.168548 54.624377 60.410468 54.089844 60.677734 C 52.742668 61.351322 51.0687 61.999308 50.001953 62 L 50 62 C 48.933255 61.999307 47.261238 61.351322 45.914062 60.677734 C 45.380925 60.411166 44.960372 60.170133 44.568359 59.945312 A 1.0001 1.0001 0 0 0 44.546875 59.929688 C 42.603779 58.67239 41.154534 56.834618 39.589844 54.451172 C 39.209172 53.87117 38.503906 52.067053 38.503906 50.863281 L 38.503906 50.25 A 1.0001 1.0001 0 0 0 37.820312 49.300781 C 37.561521 49.214391 37.188427 48.831731 36.996094 48.220703 A 1.0001 1.0001 0 0 0 36.994141 48.212891 C 36.947011 48.066717 36.641556 46.698784 36.412109 45.505859 C 36.297386 44.909397 36.189792 44.324726 36.113281 43.875 C 36.075031 43.650137 36.044851 43.458375 36.025391 43.322266 C 36.0168 43.262178 36.013933 43.201245 36.011719 43.160156 C 36.032265 42.842281 36.129329 42.651116 36.21875 42.533203 C 36.277023 42.457585 36.357293 42.348742 36.470703 42.197266 C 36.841288 42.652078 37.201264 43.041823 37.492188 43.304688 C 37.692965 43.4861 37.863753 43.624638 37.984375 43.720703 C 38.044685 43.768733 38.091303 43.805413 38.119141 43.828125 C 38.125219 43.833086 38.106065 43.809275 38.111328 43.816406 A 0.50005 0.50005 0 0 0 38.994141 43.425781 C 38.994141 43.425781 38.741443 41.04073 40.308594 37.972656 C 40.409022 38.35783 40.429147 38.958846 40.566406 39.197266 C 40.71755 39.459803 40.877309 39.641217 41.009766 39.759766 C 41.142223 39.878315 41.285156 39.951172 41.285156 39.951172 A 0.50005 0.50005 0 0 0 41.912109 39.783203 C 41.912109 39.783203 45.561371 34.715291 49.890625 32.453125 C 49.805515 33.721737 49.532629 35.376949 48.107422 37.191406 A 0.50005 0.50005 0 0 0 48.5 38 C 49.721302 38 50.782745 37.751517 51.699219 37.351562 A 0.50005 0.50005 0 0 0 51.773438 37.3125 L 53.773438 36.007812 A 0.50005 0.50005 0 0 0 53.837891 35.957031 C 54.960943 34.927566 55.667643 33.747956 56.162109 32.701172 C 56.323172 33.378935 56.643635 34.059941 57.314453 35.033203 C 57.505834 35.311384 57.700214 35.568183 57.888672 35.808594 A 0.50011539 0.50011539 0 1 0 58.675781 35.191406 C 58.494241 34.959814 58.313291 34.720616 58.138672 34.466797 C 56.884558 32.647256 57 32.392736 57 30.5 A 0.50005 0.50005 0 0 0 56.025391 30.34375 C 55.759218 31.157393 54.983894 33.53357 53.173828 35.203125 L 51.279297 36.439453 C 50.738011 36.673781 50.049277 36.735353 49.382812 36.822266 C 50.669107 34.688708 51 32.62181 51 31.5 A 0.50005 0.50005 0 0 0 50.306641 31.039062 C 45.539103 33.050126 42.000842 37.995993 41.472656 38.748047 C 41.457376 38.724327 41.449434 38.724796 41.433594 38.697266 C 41.23588 38.353839 41 37.69702 41 36.5 A 0.50005 0.50005 0 0 0 40.082031 36.226562 C 38.181766 39.12983 38.033385 41.258592 38.044922 42.429688 C 37.700874 42.108701 37.290346 41.697209 36.865234 41.09375 C 35.930515 39.766887 35 37.713686 35 34.658203 C 35 27.351886 40.956116 20 50.59375 20 z M 59.751953 36.994141 A 0.50005 0.50005 0 0 0 59.353516 37.755859 C 59.741932 38.407057 60.043945 39.057247 60.269531 39.671875 A 0.50005 0.50005 0 1 0 61.207031 39.328125 C 60.960618 38.656753 60.63252 37.950943 60.210938 37.244141 A 0.50005 0.50005 0 0 0 59.751953 36.994141 z M 17.478516 37 C 21.95609 37 23.850005 39.101807 24.345703 40.314453 A 0.50005 0.50005 0 0 0 24.773438 40.623047 C 25.921301 40.702347 26.952533 41.481996 27.732422 42.869141 C 28.512311 44.256285 29 46.227085 29 48.5 C 29 52.054361 27.648855 53.618725 26.876953 54.353516 C 26.76511 53.353301 26.482395 51.922951 25.369141 50.226562 A 0.50005 0.50005 0 0 0 25.369141 50.224609 C 24.974226 49.623106 24.384818 49.037386 23.867188 48.300781 L 23.865234 48.298828 C 22.909441 46.934602 23 46.007029 23 44.5 A 0.50005 0.50005 0 0 0 22.025391 44.341797 C 21.869397 44.810232 21.298852 46.269726 20.234375 47.568359 C 19.359088 48.636186 18.076059 49.434423 16.486328 49.740234 C 17.48334 48.096356 18 46.455525 18 45.5 A 0.50005 0.50005 0 0 0 17.308594 45.037109 C 15.192063 45.913965 13.408753 47.722759 12.126953 49.300781 C 11.120679 50.539604 10.760878 51.197541 10.507812 51.619141 C 10.477113 51.564981 10.479966 51.592744 10.447266 51.527344 C 10.227084 51.086975 10 50.416667 10 49.5 A 0.50005 0.50005 0 0 0 9.0839844 49.222656 C 7.5552205 51.515802 7.2471822 53.384327 7.1386719 54.451172 C 6.905119 54.210756 6.6541241 53.954842 6.3808594 53.544922 C 5.6906403 52.509535 5 50.9031 5 48.5 C 5 42.777778 9.7512042 37 17.478516 37 z M 83.478516 37 C 87.95609 37 89.850005 39.101807 90.345703 40.314453 A 0.50005 0.50005 0 0 0 90.773438 40.623047 C 91.921301 40.702347 92.952533 41.481996 93.732422 42.869141 C 94.512311 44.256285 95 46.227085 95 48.5 C 95 52.054361 93.648855 53.618725 92.876953 54.353516 C 92.76511 53.353301 92.482395 51.922951 91.369141 50.226562 A 0.50005 0.50005 0 0 0 91.369141 50.224609 C 90.974226 49.623106 90.384817 49.037386 89.867188 48.300781 L 89.865234 48.298828 C 88.909441 46.934602 89 46.007029 89 44.5 A 0.50005 0.50005 0 0 0 88.025391 44.341797 C 87.869397 44.810232 87.298852 46.269726 86.234375 47.568359 C 85.359088 48.636186 84.076059 49.434423 82.486328 49.740234 C 83.48334 48.096356 84 46.455525 84 45.5 A 0.50005 0.50005 0 0 0 83.308594 45.037109 C 81.192063 45.913965 79.408753 47.722759 78.126953 49.300781 C 77.120679 50.539604 76.76088 51.197541 76.507812 51.619141 C 76.477114 51.564981 76.479966 51.592744 76.447266 51.527344 C 76.227084 51.086975 76 50.416667 76 49.5 A 0.50005 0.50005 0 0 0 75.083984 49.222656 C 73.55522 51.515802 73.247182 53.384327 73.138672 54.451172 C 72.905119 54.210756 72.654124 53.954842 72.380859 53.544922 C 71.69064 52.509535 71 50.9031 71 48.5 C 71 48.142361 71.018002 47.784383 71.054688 47.427734 C 71.604969 42.078003 76.234162 37 83.478516 37 z M 22.099609 46.509766 C 22.212738 47.265278 22.457463 48.034531 23.046875 48.875 C 23.622824 49.695227 24.236562 50.32357 24.533203 50.775391 C 26.05906 53.101793 26 55.486328 26 55.486328 A 0.50005 0.50005 0 0 0 26.789062 55.908203 C 26.789062 55.908203 27.248831 55.572314 27.820312 54.882812 C 27.83631 54.903863 27.857298 54.933851 27.869141 54.949219 C 27.917749 55.013418 27.975442 55.125585 27.992188 55.322266 C 27.990797 55.354925 27.98992 55.390874 27.984375 55.429688 C 27.969265 55.535497 27.944482 55.686451 27.914062 55.865234 C 27.853213 56.222801 27.767381 56.68998 27.675781 57.166016 C 27.492581 58.118087 27.240768 59.23597 27.216797 59.310547 A 1.0001 1.0001 0 0 0 27.214844 59.316406 C 27.074541 59.762271 26.807613 60.009289 26.683594 60.050781 A 1.0001 1.0001 0 0 0 26 61 L 26 61.490234 C 26 62.394283 25.513578 63.459514 25.171875 63.978516 A 1.0001 1.0001 0 0 0 25.171875 63.980469 C 25.032524 64.19284 24.882109 64.399453 24.724609 64.599609 C 24.692026 64.641073 24.656323 64.679777 24.623047 64.720703 C 24.498623 64.873485 24.371749 65.022684 24.238281 65.167969 C 23.959559 65.4721 23.658759 65.75527 23.349609 66.025391 C 23.275333 66.090107 23.202588 66.156014 23.126953 66.21875 C 23.032497 66.297299 22.932218 66.364058 22.835938 66.439453 C 22.525552 66.681888 22.21127 66.917653 21.888672 67.126953 C 21.788719 67.191872 21.688363 67.246951 21.587891 67.308594 C 21.276363 67.499552 20.962651 67.680812 20.652344 67.839844 C 19.149491 68.606782 17.691756 69 16.970703 69 C 16.289674 69 14.866976 68.613692 13.388672 67.863281 C 13.044105 67.688123 12.695499 67.486051 12.349609 67.271484 C 12.274043 67.224454 12.198333 67.183662 12.123047 67.134766 C 11.795547 66.922729 11.477086 66.68565 11.162109 66.439453 C 11.065846 66.363969 10.96556 66.297394 10.871094 66.21875 C 10.796458 66.156798 10.723704 66.091227 10.650391 66.027344 C 10.337966 65.754249 10.03342 65.468022 9.7519531 65.160156 C 9.6291763 65.02617 9.5135855 64.886452 9.3984375 64.746094 C 9.3579619 64.696756 9.3148406 64.649725 9.2753906 64.599609 C 9.1178046 64.399418 8.9676255 64.1929 8.828125 63.980469 C 8.4855449 63.459327 8 62.394283 8 61.490234 L 8 61 A 1.0001 1.0001 0 0 0 7.3164062 60.050781 C 7.192387 60.009291 6.9253525 59.761259 6.7851562 59.316406 A 1.0001 1.0001 0 0 0 6.7832031 59.310547 C 6.759229 59.236011 6.5074184 58.12004 6.3242188 57.167969 C 6.2326188 56.691933 6.1467834 56.224752 6.0859375 55.867188 C 6.0555145 55.688403 6.0307372 55.535497 6.015625 55.429688 C 6.0100816 55.390875 6.0092068 55.354592 6.0078125 55.322266 C 6.0248112 55.125646 6.0841148 55.013628 6.1328125 54.949219 L 6.1328125 54.947266 C 6.1302205 54.950723 6.1655404 54.908821 6.1679688 54.90625 C 6.3399744 55.10352 6.504202 55.276537 6.6464844 55.412109 C 6.799776 55.558172 6.9312478 55.670911 7.0234375 55.748047 C 7.0695325 55.786617 7.1066835 55.816714 7.1269531 55.833984 C 7.1325231 55.838684 7.1111844 55.811969 7.1152344 55.818359 A 0.50005 0.50005 0 0 0 8 55.5 C 8 55.5 8.2491611 53.413819 9.3554688 51.09375 C 9.4412597 51.360394 9.4532548 51.773698 9.5527344 51.972656 C 9.8325486 52.532285 10.146484 52.853516 10.146484 52.853516 A 0.50005 0.50005 0 0 0 10.935547 52.746094 C 10.935547 52.746094 11.674393 51.441415 12.902344 49.929688 C 13.917485 48.679949 15.302121 47.422997 16.78125 46.552734 C 16.573435 47.571081 16.153265 48.882638 15.109375 50.1875 A 0.50005 0.50005 0 0 0 15.5 51 C 18.010063 51 19.824289 49.646992 21.007812 48.203125 C 21.484068 47.622107 21.801915 47.051861 22.099609 46.509766 z M 88.099609 46.509766 C 88.212738 47.265278 88.457463 48.034531 89.046875 48.875 C 89.622824 49.695227 90.236562 50.32357 90.533203 50.775391 C 92.05906 53.101793 92 55.486328 92 55.486328 A 0.50005 0.50005 0 0 0 92.400391 55.990234 A 0.50005 0.50005 0 0 0 92.451172 55.998047 A 0.50005 0.50005 0 0 0 92.789062 55.908203 C 92.789062 55.908203 92.940163 55.785795 93.158203 55.582031 C 93.345622 55.412739 93.526574 55.237213 93.820312 54.882812 C 93.83631 54.903863 93.857298 54.933851 93.869141 54.949219 C 93.917749 55.013418 93.975442 55.125585 93.992188 55.322266 C 93.990797 55.354925 93.98992 55.390874 93.984375 55.429688 C 93.969265 55.535497 93.944482 55.686451 93.914062 55.865234 C 93.853212 56.222801 93.767381 56.68998 93.675781 57.166016 C 93.492581 58.118087 93.240768 59.23597 93.216797 59.310547 A 1.0001 1.0001 0 0 0 93.214844 59.316406 C 93.074541 59.762271 92.807613 60.009289 92.683594 60.050781 A 1.0001 1.0001 0 0 0 92 61 L 92 61.490234 C 92 62.394283 91.513578 63.459514 91.171875 63.978516 A 1.0001 1.0001 0 0 0 91.171875 63.980469 C 91.032524 64.19284 90.882109 64.399453 90.724609 64.599609 C 90.692026 64.641073 90.656323 64.679777 90.623047 64.720703 C 90.498623 64.873485 90.371749 65.022684 90.238281 65.167969 C 89.959559 65.4721 89.658759 65.75527 89.349609 66.025391 C 89.275333 66.090107 89.202588 66.156014 89.126953 66.21875 C 89.032497 66.297299 88.932218 66.364058 88.835938 66.439453 C 88.525552 66.681888 88.21127 66.917653 87.888672 67.126953 C 87.788719 67.191872 87.688363 67.246951 87.587891 67.308594 C 87.276363 67.499552 86.962651 67.680812 86.652344 67.839844 C 85.149491 68.606782 83.691756 69 82.970703 69 C 82.289674 69 80.866976 68.613692 79.388672 67.863281 C 79.044105 67.688123 78.695499 67.486051 78.349609 67.271484 C 78.274043 67.224454 78.198333 67.183662 78.123047 67.134766 C 77.795547 66.922729 77.477086 66.68565 77.162109 66.439453 C 77.065846 66.363969 76.96556 66.297394 76.871094 66.21875 C 76.796458 66.156798 76.723704 66.091227 76.650391 66.027344 C 76.337966 65.754249 76.03342 65.468022 75.751953 65.160156 C 75.413624 64.790938 75.101898 64.39737 74.828125 63.980469 C 74.485545 63.459327 74 62.394283 74 61.490234 L 74 61 A 1.0001 1.0001 0 0 0 73.316406 60.050781 C 73.192387 60.009291 72.925352 59.761259 72.785156 59.316406 A 1.0001 1.0001 0 0 0 72.783203 59.310547 C 72.759233 59.235967 72.507419 58.12004 72.324219 57.167969 C 72.232619 56.691933 72.146783 56.224752 72.085938 55.867188 C 72.055516 55.688403 72.030735 55.535497 72.015625 55.429688 C 72.010082 55.390875 72.009213 55.354591 72.007812 55.322266 C 72.024818 55.125646 72.08412 55.013628 72.132812 54.949219 L 72.132812 54.947266 C 72.13022 54.950723 72.16554 54.908821 72.167969 54.90625 C 72.339974 55.10352 72.504202 55.276537 72.646484 55.412109 C 72.799776 55.558172 72.931248 55.670911 73.023438 55.748047 C 73.069528 55.786617 73.106688 55.816714 73.126953 55.833984 C 73.132553 55.838684 73.111184 55.811969 73.115234 55.818359 A 0.50005 0.50005 0 0 0 73.511719 55.998047 A 0.50005 0.50005 0 0 0 73.560547 55.996094 A 0.50005 0.50005 0 0 0 74 55.5 C 74 55.5 74.249161 53.413819 75.355469 51.09375 C 75.441259 51.360394 75.453259 51.773698 75.552734 51.972656 C 75.832549 52.532285 76.146484 52.853516 76.146484 52.853516 A 0.50005 0.50005 0 0 0 76.935547 52.746094 C 76.935547 52.746094 77.674393 51.441415 78.902344 49.929688 C 79.917485 48.679949 81.302121 47.422997 82.78125 46.552734 C 82.573435 47.571081 82.153265 48.882638 81.109375 50.1875 A 0.50005 0.50005 0 0 0 81.5 51 C 84.010063 51 85.824291 49.646992 87.007812 48.203125 C 87.48407 47.622107 87.801915 47.051861 88.099609 46.509766 z M 55 61.318359 L 55 62.25 C 55 63.520876 55.510011 64.464203 56.117188 65.152344 C 55.749955 65.452557 55.171975 65.847145 54.306641 66.208984 A 0.50005 0.50005 0 1 0 54.693359 67.130859 C 55.715508 66.703448 56.404727 66.206251 56.841797 65.833984 C 57.528301 66.370537 58.148438 66.623047 58.148438 66.623047 L 58.064453 66.587891 C 58.064453 66.587891 59.007943 67.039673 59.330078 67.195312 C 58.863936 68.051067 57.38313 70.443733 54.589844 71.853516 L 53.533203 70.679688 A 0.50005 0.50005 0 0 0 53.527344 70.673828 L 53.521484 70.666016 L 51.076172 67.949219 C 51.615498 67.909245 52.130865 67.851767 52.595703 67.761719 A 0.50044711 0.50044711 0 0 0 52.404297 66.779297 C 51.738639 66.908251 50.978846 66.985984 50.130859 66.994141 A 0.50005 0.50005 0 0 0 50.027344 66.980469 A 0.50005 0.50005 0 0 0 49.853516 66.996094 C 47.518716 66.971641 45.901263 66.386988 44.867188 65.8125 C 44.4279 65.568451 44.121522 65.342401 43.886719 65.150391 C 44.493847 64.461955 45.003906 63.520208 45.003906 62.25 L 45.003906 61.320312 C 45.174641 61.41041 45.283482 61.480608 45.466797 61.572266 C 46.868279 62.273007 48.569019 62.999356 50.001953 63 C 51.434887 62.999356 53.133674 62.273007 54.535156 61.572266 C 54.719392 61.480148 54.828479 61.408894 55 61.318359 z M 43.15625 65.837891 C 43.448026 66.087121 43.84399 66.388154 44.382812 66.6875 C 45.401728 67.253564 46.896958 67.806339 48.917969 67.957031 L 46.480469 70.662109 A 0.50005 0.50005 0 0 0 46.464844 70.679688 L 45.410156 71.853516 C 42.618142 70.444375 41.138783 68.052165 40.671875 67.195312 C 40.994718 67.039395 41.939453 66.587891 41.939453 66.587891 L 41.853516 66.625 C 41.853516 66.625 42.471158 66.372352 43.15625 65.837891 z M 60.294922 67.65625 C 61.771757 68.368645 63.200917 69.063775 64.201172 69.53125 C 65.311875 70.050041 66.540055 70.831239 67.457031 71.888672 C 68.374002 72.946109 69 74.247917 69 76 L 69 79 L 56.210938 79 L 60.294922 67.65625 z M 39.705078 67.658203 L 43.789062 79 L 31 79 L 31.001953 76 C 31.001953 74.247917 31.627889 72.945934 32.544922 71.888672 C 33.461955 70.83141 34.689791 70.051449 35.800781 69.533203 A 1.0001 1.0001 0 0 0 35.800781 69.53125 C 36.800176 69.064177 38.227673 68.370591 39.705078 67.658203 z M 50 68.246094 L 52.480469 71.003906 C 52.204648 71.355228 51.41381 72.220463 50 72.90625 C 48.586581 72.220946 47.796574 71.353687 47.521484 71.001953 L 50 68.246094 z M 20.015625 69.246094 C 20.10176 70.590269 20.859045 71.476819 21.544922 72.015625 C 21.135687 72.280825 20.475951 72.593319 19.408203 72.794922 A 0.50005 0.50005 0 0 0 19.386719 73.779297 A 0.50005 0.50005 0 0 0 19.435547 73.787109 A 0.50005 0.50005 0 0 0 19.535156 73.787109 A 0.50005 0.50005 0 0 0 19.591797 73.777344 C 20.867671 73.536444 21.700838 73.133356 22.222656 72.769531 C 22.321698 72.700477 22.359861 72.648664 22.4375 72.583984 C 22.512236 72.618216 22.648438 72.685547 22.648438 72.685547 A 1.0001 1.0001 0 0 0 22.689453 72.701172 L 28.236328 74.517578 C 28.530181 74.633064 28.807299 74.776022 29.076172 74.931641 C 29.032087 75.277812 29.001953 75.630742 29.001953 76 L 29 79 L 2.140625 79 C 2.0204289 79 1.9898823 78.943655 2.0058594 78.859375 A 1.0001 1.0001 0 0 0 2.0078125 78.855469 C 2.4505654 76.892634 3.8526891 75.266963 5.7675781 74.517578 L 11.310547 72.701172 A 1.0001 1.0001 0 0 0 11.337891 72.691406 C 11.337891 72.691411 11.473566 72.62475 11.546875 72.591797 C 11.73572 72.748461 11.964111 72.914449 12.287109 73.083984 C 13.19066 73.558238 14.662666 74 17 74 C 17.188333 74 17.354966 73.993101 17.515625 73.988281 A 0.50024408 0.50024408 0 0 0 17.484375 72.988281 C 17.315034 72.993414 17.161667 73 17 73 C 14.788334 73 13.486402 72.584715 12.751953 72.199219 C 12.631867 72.136188 12.548579 72.077486 12.457031 72.017578 C 13.143289 71.480159 13.897 70.597306 13.984375 69.251953 C 15.148094 69.739671 16.199872 70 16.970703 70 C 17.762236 70 18.835338 69.738049 20.015625 69.246094 z M 86.015625 69.246094 C 86.10176 70.590269 86.859045 71.476819 87.544922 72.015625 C 87.135687 72.280825 86.475951 72.593319 85.408203 72.794922 A 0.50005 0.50005 0 0 0 85.310547 72.820312 A 0.50005 0.50005 0 0 0 85.220703 72.863281 A 0.50005 0.50005 0 0 0 85.107422 72.958984 A 0.50005 0.50005 0 0 0 85.107422 72.960938 A 0.50005 0.50005 0 0 0 85.076172 73 A 0.50005 0.50005 0 0 0 85.337891 73.767578 A 0.50005 0.50005 0 0 0 85.339844 73.767578 A 0.50005 0.50005 0 0 0 85.34375 73.769531 A 0.50005 0.50005 0 0 0 85.386719 73.779297 A 0.50005 0.50005 0 0 0 85.435547 73.787109 A 0.50005 0.50005 0 0 0 85.486328 73.789062 A 0.50005 0.50005 0 0 0 85.535156 73.787109 A 0.50005 0.50005 0 0 0 85.591797 73.777344 C 86.867671 73.536444 87.700838 73.133356 88.222656 72.769531 C 88.321698 72.700477 88.359861 72.648664 88.4375 72.583984 C 88.512236 72.618216 88.648438 72.685547 88.648438 72.685547 A 1.0001 1.0001 0 0 0 88.689453 72.701172 L 94.226562 74.513672 C 96.144374 75.260781 97.5489 76.890257 97.992188 78.855469 A 1.0001 1.0001 0 0 0 97.994141 78.859375 C 98.010413 78.945403 97.979571 79 97.859375 79 L 71 79 L 71 76 C 71 75.630742 70.96979 75.277805 70.925781 74.931641 C 71.194087 74.776627 71.471283 74.634134 71.763672 74.519531 L 77.310547 72.701172 A 1.0001 1.0001 0 0 0 77.337891 72.691406 C 77.337891 72.691411 77.473566 72.624749 77.546875 72.591797 C 77.550824 72.595073 77.556563 72.598278 77.560547 72.601562 C 77.635685 72.663283 77.712045 72.723569 77.806641 72.789062 C 77.943259 72.886032 78.095291 72.983303 78.287109 73.083984 C 79.19066 73.558238 80.662666 74 83 74 C 83.188333 74 83.354966 73.993101 83.515625 73.988281 A 0.50024408 0.50024408 0 0 0 83.484375 72.988281 C 83.315034 72.993414 83.161667 73 83 73 C 80.788334 73 79.486402 72.584715 78.751953 72.199219 C 78.631867 72.136188 78.548579 72.077486 78.457031 72.017578 C 79.142831 71.480328 79.894881 70.594407 79.982422 69.251953 C 80.345826 69.404315 80.701098 69.540403 81.037109 69.646484 C 81.777752 69.880311 82.44017 70 82.970703 70 C 83.762236 70 84.835338 69.738049 86.015625 69.246094 z M 41.746094 70.373047 C 42.633323 71.315559 43.802169 72.27635 45.292969 72.955078 A 0.50005 0.50005 0 0 0 45.871094 72.833984 L 46.837891 71.759766 C 47.153609 72.123482 47.636275 72.625338 48.345703 73.130859 C 47.096466 75.366411 46.97921 77.938241 46.988281 79 L 44.851562 79 L 41.746094 70.373047 z M 58.253906 70.373047 L 55.148438 79 L 53.011719 79 C 53.02079 77.938241 52.903534 75.366411 51.654297 73.130859 C 52.364431 72.625366 52.846392 72.122671 53.162109 71.759766 L 54.128906 72.833984 A 0.50005 0.50005 0 0 0 54.707031 72.955078 C 56.197831 72.27635 57.366677 71.315559 58.253906 70.373047 z M 49.207031 73.660156 C 49.398464 73.763869 49.590917 73.868033 49.800781 73.958984 A 0.50005 0.50005 0 0 0 50.199219 73.958984 C 50.409009 73.867961 50.601584 73.763848 50.792969 73.660156 C 52.009117 75.858115 51.997678 78.379765 51.980469 79 L 48.019531 79 C 48.002327 78.379765 47.990882 75.858115 49.207031 73.660156 z" fill="#000000"/></svg>
